<svg width="1800" height="263" viewBox="0 0 1800 263" fill="none" xmlns="http://www.w3.org/2000/svg">
<path d="M258.984 175.286H352.763C359.711 155.477 361.834 134.281 358.953 113.477C356.072 92.6726 348.271 72.8656 336.204 55.7162C324.137 38.5668 308.156 24.5749 289.6 14.9132C271.045 5.25157 250.455 0.201779 229.557 0.187134H101.27V87.7136H258.984V175.286Z" fill="black"/>
<path d="M258.982 175.286H101.267V87.7135H7.5347C0.531865 107.519 -1.63308 128.727 1.22218 149.549C4.07743 170.372 11.8692 190.2 23.9414 207.363C36.0136 224.526 52.0125 238.522 70.5906 248.172C89.1687 257.822 109.782 262.843 130.694 262.813H258.982V175.286Z" fill="black"/>
<path d="M1412.32 72.0657H1442.16V258.495H1412.32V233.653C1401.41 247.583 1383.58 260.723 1353.05 260.723C1312.3 260.723 1279.92 237.507 1279.92 175.89V72.0657H1309.76V174.218C1309.76 212.944 1327.22 233.421 1358.13 233.421C1391.94 233.421 1412.32 207.465 1412.32 165.443V72.0657Z" fill="black"/>
<path d="M587.204 260.723C515.553 260.723 465.707 205.886 465.707 130.71C465.707 55.5352 515.553 0.697815 587.204 0.697815C658.854 0.697815 708.654 55.5352 708.654 130.71C708.654 205.886 658.854 260.723 587.204 260.723ZM587.204 231.47C640.283 231.47 676.316 189.402 676.316 130.571C676.316 71.7404 640.283 29.6721 587.204 29.6721C534.124 29.6721 498.091 71.694 498.091 130.571C498.091 189.448 534.078 231.47 587.204 231.47Z" fill="black"/>
<path d="M874.133 72.0657H903.93V258.495H874.133V233.653C863.231 247.583 845.399 260.723 814.863 260.723C774.118 260.723 741.734 237.507 741.734 175.89V72.0657H771.577V174.218C771.577 212.944 789.04 233.421 819.945 233.421C853.761 233.421 874.133 207.465 874.133 165.443V72.0657Z" fill="black"/>
<path d="M959.181 99.5074H925.734V72.0656H959.181V10.7738H989.023V72.0656H1037.02V99.5074H989.023V231.099H1039.84V258.494H1007.5C971.838 258.494 959.088 242.8 959.088 209.879L959.181 99.5074Z" fill="black"/>
<path d="M1248.32 165.303C1248.32 222.323 1210.49 260.723 1159.21 260.723C1127.93 260.723 1106.87 247.908 1095.55 229.984L1095.23 258.494H1065.75V10.7738H1095.55V102.108C1102.68 91.8665 1112.23 83.5651 1123.34 77.9488C1134.45 72.3325 1146.78 69.577 1159.21 69.9295C1210.49 69.8831 1248.32 104.615 1248.32 165.303ZM1217.79 165.303C1217.79 124.721 1193.02 96.5822 1156.3 96.5822C1119.57 96.5822 1095.23 124.721 1095.23 164.56C1095.23 205.514 1119.94 234.21 1156.3 234.21C1192.66 234.21 1217.79 205.793 1217.79 165.303Z" fill="black"/>
<path d="M1512.7 72.1121H1482.86V258.541H1512.7V72.1121Z" fill="black"/>
<path d="M1553.41 10.7738H1583.2V258.541H1553.41V10.7738Z" fill="black"/>
<path d="M1770.16 10.7738H1800V258.541H1770.16V228.545C1763.03 238.786 1753.48 247.088 1742.37 252.704C1731.26 258.32 1718.93 261.076 1706.5 260.723C1655.22 260.723 1617.39 225.991 1617.39 165.303C1617.39 108.283 1655.22 69.8832 1706.5 69.8832C1737.77 69.8832 1758.89 82.6522 1770.16 100.575V10.7738ZM1770.53 166.093C1770.53 125.139 1745.81 96.4429 1709.41 96.4429C1673.01 96.4429 1647.97 124.581 1647.97 165.164C1647.97 205.746 1672.68 233.885 1709.41 233.885C1746.14 233.885 1770.53 205.793 1770.53 166.046V166.093Z" fill="black"/>
<path d="M1512.7 12.1669H1482.86V42.1627H1512.7V12.1669Z" fill="black"/>
</svg>
